<?xml version="1.0" encoding="iso-8859-1"?>
<!-- Generator: Adobe Illustrator 16.0.0, SVG Export Plug-In . SVG Version: 6.00 Build 0)  -->
<!DOCTYPE svg PUBLIC "-//W3C//DTD SVG 1.1//EN" "http://www.w3.org/Graphics/SVG/1.1/DTD/svg11.dtd">
<svg version="1.1" id="Capa_1" xmlns="http://www.w3.org/2000/svg" xmlns:xlink="http://www.w3.org/1999/xlink" x="0px" y="0px"
	 width="31.934px" height="31.934px" viewBox="0 0 31.934 31.934" style="enable-background:new 0 0 31.934 31.934;"
	 xml:space="preserve">
<g>
	<g>
		<path d="M15.966,0c-4.74,0-8.652,3.857-8.652,8.597v14.739c0,4.74,3.912,8.598,8.652,8.598c4.741,0,8.653-3.857,8.653-8.598V8.597
			C24.618,3.857,20.707,0,15.966,0z M9.837,8.905c0-3.906,2.515-5.598,3.841-5.948c0.657-0.173,1.333,0.221,1.505,0.875
			c0.171,0.651-0.186,1.317-0.832,1.497c-0.219,0.065-1.99,0.697-1.99,3.576v4.606c0,0.678-0.583,1.228-1.262,1.228
			c-0.677,0-1.262-0.55-1.262-1.228V8.905z M22.094,23.336c0,3.386-2.742,6.141-6.128,6.141c-3.385,0-6.129-2.755-6.129-6.141
			v-5.167c0-0.972,0.788-1.759,1.759-1.759h8.739c0.973,0,1.76,0.787,1.76,1.759V23.336z"/>
	</g>
</g>
<g>
</g>
<g>
</g>
<g>
</g>
<g>
</g>
<g>
</g>
<g>
</g>
<g>
</g>
<g>
</g>
<g>
</g>
<g>
</g>
<g>
</g>
<g>
</g>
<g>
</g>
<g>
</g>
<g>
</g>
</svg>
