<?xml version="1.0" encoding="iso-8859-1"?>
<!-- Generator: Adobe Illustrator 18.0.0, SVG Export Plug-In . SVG Version: 6.00 Build 0)  -->
<!DOCTYPE svg PUBLIC "-//W3C//DTD SVG 1.1//EN" "http://www.w3.org/Graphics/SVG/1.1/DTD/svg11.dtd">
<svg version="1.1" id="Capa_1" xmlns="http://www.w3.org/2000/svg" xmlns:xlink="http://www.w3.org/1999/xlink" x="0px" y="0px"
	 viewBox="0 0 431.364 431.364" style="enable-background:new 0 0 431.364 431.364;" xml:space="preserve">
<g>
	<path d="M392.723,33.881c-3.775,0-8.306,1.518-13.103,4.39L27.301,249.212c3.351,101.011,86.568,182.152,188.381,182.152
		c103.931-0.001,188.486-84.555,188.486-188.485V52.185C404.168,46.682,403.053,33.881,392.723,33.881z"/>
	<path d="M312.17,52.353c-2.282-3.881-5.722-7.365-10.165-10.217L250.417,9.022C241.484,3.288,228.824,0,215.682,0
		c-13.142,0-25.801,3.288-34.735,9.022L129.36,42.136c-4.444,2.853-7.883,6.336-10.165,10.218l96.488,57.769L312.17,52.353z"/>
	<path d="M51.744,38.271c-4.797-2.872-9.328-4.39-13.103-4.39c-10.33,0-11.445,12.801-11.445,18.305v170.788l166.521-99.7
		L51.744,38.271z"/>
</g>
<g>
</g>
<g>
</g>
<g>
</g>
<g>
</g>
<g>
</g>
<g>
</g>
<g>
</g>
<g>
</g>
<g>
</g>
<g>
</g>
<g>
</g>
<g>
</g>
<g>
</g>
<g>
</g>
<g>
</g>
</svg>
